<svg xmlns="http://www.w3.org/2000/svg" viewBox="0 0 18 18"><defs><style>.cls-1{fill:#eb5526;}</style></defs><title>file-pdf</title><g id="Слой_2" data-name="Слой 2"><g id="Слой_1-2" data-name="Слой 1"><path class="cls-1" d="M9.94,10.08a2.14,2.14,0,0,0,.42.33A20.76,20.76,0,0,0,7,11.34l-.09,0a4.86,4.86,0,0,1,.47-1,12.86,12.86,0,0,0,1-2.44,5.73,5.73,0,0,0,1.5,2.16Zm5.27,1.05a.82.82,0,0,0-.16-.59q-.42-.7-2.25-.7a10,10,0,0,0-1.31.09,5.78,5.78,0,0,1-.84-.61A5.52,5.52,0,0,1,9,6.8V6.66a12,12,0,0,0,.38-2.06A2,2,0,0,0,9,3a.83.83,0,0,0-.61-.23H8.2A.64.64,0,0,0,7.71,3a1.46,1.46,0,0,0-.3.52,3.9,3.9,0,0,0-.16,1.69,11.76,11.76,0,0,0,.4,1.59,21.66,21.66,0,0,1-1.08,3q-.52,1-1,1.78a7.09,7.09,0,0,0-.89.47,6.08,6.08,0,0,0-1.34,1.17,2.59,2.59,0,0,0-.54,1,.94.94,0,0,0,0,.52l0,0,.47.33a.92.92,0,0,0,.42.09,2,2,0,0,0,1.34-.73A12,12,0,0,0,6.8,12.14L7,12a22.31,22.31,0,0,1,4-.75,6.91,6.91,0,0,0,1.57.56A6.59,6.59,0,0,0,14,12a1.09,1.09,0,0,0,.87-.28h0A1,1,0,0,0,15.21,11.13ZM17.41.56A1.93,1.93,0,0,1,18,2V16a2,2,0,0,1-2,2H2a1.94,1.94,0,0,1-1.43-.59A1.94,1.94,0,0,1,0,16V2A2,2,0,0,1,.56.56,2,2,0,0,1,2,0H16A2,2,0,0,1,17.41.56ZM14.58,11.16c0,.09,0,.14-.09.14h-.23a4.72,4.72,0,0,1-1.88-.52.46.46,0,0,1,.23-.09,4.9,4.9,0,0,1,1.43.14q.4.14.45.23ZM3.66,14.48A2,2,0,0,1,4,13.76a6.91,6.91,0,0,1,.82-1l.52-.28q-1,1.78-1.69,2ZM8.3,3.56l0-.14.14,0q.28.28.09,1.08l-.19,1,0,0a3.4,3.4,0,0,1,0-2Z"/></g></g></svg>