<?xml version="1.0" encoding="utf-8"?>
<!-- Generator: Adobe Illustrator 19.1.1, SVG Export Plug-In . SVG Version: 6.00 Build 0)  -->
<svg version="1.1" id="icon" xmlns="http://www.w3.org/2000/svg" xmlns:xlink="http://www.w3.org/1999/xlink" x="0px" y="0px"
	 viewBox="0 0 226 227.3" style="enable-background:new 0 0 226 227.3;" xml:space="preserve">
<style type="text/css">
	.st0{fill:#FFFFFF;}
</style>
<path class="st0" d="M174.2,122l-37.8-18.6c-0.8-0.4-1.1-1.4-0.7-2.2s1.4-1.1,2.2-0.7l37.8,18.6c0.8,0.4,1.1,1.4,0.7,2.2
	C175.9,122,175,122.4,174.2,122z M165.3,135.1c0.4-0.9,0.1-1.9-0.8-2.3l-30.4-15c-0.9-0.4-1.9-0.1-2.3,0.8s-0.1,1.9,0.8,2.3l30.4,15
	C163.8,136.4,164.9,136,165.3,135.1z M214.8,101.4l-4.3,8.7c-2.8,5.7-9.3,8.4-15.2,6.8L163,154.3c-0.9,1-2.4,1.3-3.6,0.7l-2.8-1.4
	l-25.4,30.7c-0.9,1.1-2.4,1.4-3.6,0.8l-3.9-2l-7.7,15.7c-9.8,19.8-33.8,27.9-53.5,18.2s-27.9-33.8-18.2-53.5l6.3-12.9l0,0
	l51.6-104.6c6-12.2,1-27-11.2-33.1s-27-1-33.1,11.2L7.9,125.4c0,0-1.3,2.6-4.1,1.2c-2.6-1.3-1.3-3.9-1.3-3.9L52.5,21.6
	C60,6.4,78.4,0.2,93.6,7.7s21.4,25.9,13.9,41.1l-49.1,99.6l0,0l-8.8,17.9c-8.3,16.8-1.4,37.2,15.4,45.5s37.2,1.4,45.5-15.4l7.7-15.7
	l-4.2-2c-1.2-0.6-1.9-2-1.6-3.4l9-38.8l-2.9-1.4c-1.2-0.6-1.9-2-1.6-3.3l9.9-48.6c-4.9-3.7-6.7-10.5-3.9-16.2l4.3-8.7
	c3.2-6.4,11-9.1,17.4-5.9l0.3,0.1l11.9-24.2c2.5-5.1,8.7-7.2,13.8-4.7c5.1,2.5,7.2,8.7,4.7,13.8l-11.9,24.2l26.3,13l11.9-24.2
	c2.5-5.1,8.7-7.2,13.8-4.7c5.1,2.5,7.2,8.7,4.7,13.8l-11.9,24.2l0.6,0.3C215.3,87.2,218,95,214.8,101.4z M195.1,77.2l7.8,3.8
	l11.9-24.2c1.1-2.1,0.2-4.7-2-5.8c-2.1-1.1-4.7-0.2-5.8,2L195.1,77.2z M150.3,55.1l7.8,3.8L170,34.7c1.1-2.1,0.2-4.7-2-5.8
	c-2.1-1.1-4.7-0.2-5.8,2L150.3,55.1z M150.6,150.8l-23.2-11.5l-8.6,34.9l9.2,4.6L150.6,150.8z M189.6,114.3L132.3,86l-9,44.6
	l36.6,18.1L189.6,114.3z M209.4,98.7c1.7-3.5,0.3-7.7-3.2-9.4L142,57.6c-3.5-1.7-7.7-0.3-9.4,3.2l-4.3,8.7c-1.7,3.5-0.3,7.7,3.2,9.4
	l64.3,31.7c3.5,1.7,7.7,0.3,9.4-3.2L209.4,98.7z"/>
</svg>
