<svg xmlns="http://www.w3.org/2000/svg" viewBox="0 0 36.72 33.36"><defs><style>.cls-1{fill:#fff;}</style></defs><title>like-big</title><g id="Слой_2" data-name="Слой 2"><g id="Слой_1-2" data-name="Слой 1"><path class="cls-1" d="M36.72,18.36a3.53,3.53,0,0,1-.23,1.25L31.41,31.33a3.26,3.26,0,0,1-3,2h-15a3.11,3.11,0,0,1-2.34-1A3.61,3.61,0,0,1,10,30V13.36A3.46,3.46,0,0,1,11,11L22,0l1.8,1.8a2.34,2.34,0,0,1,.7,1.72v.55l-1.64,7.66H33.36a3.18,3.18,0,0,1,2.34.94,3.47,3.47,0,0,1,1,2.34ZM0,13.36H6.72v20H0Z"/></g></g></svg>