<svg xmlns="http://www.w3.org/2000/svg" viewBox="0 0 84.33 119.14"><title>logo1-black</title><g id="Слой_2" data-name="Слой 2"><g id="Слой_1-2" data-name="Слой 1"><path d="M84.33,33.76V60.18a2.37,2.37,0,0,1-1.27,2.1L51.13,78.93a2.37,2.37,0,0,1-3.2-1l-8.88-17a2.37,2.37,0,0,1,1-3.2L61.59,46.48a2.37,2.37,0,0,0,1-3.2l-12-23a2.37,2.37,0,0,0-3.2-1L25.1,30.85A2.37,2.37,0,0,0,23.83,33v83.82a2.37,2.37,0,0,1-2.37,2.37H2.37A2.37,2.37,0,0,1,0,116.77V18.85a2.37,2.37,0,0,1,1.27-2.1L32,.27A2.37,2.37,0,0,1,33.18,0l33.5,1.56a2.37,2.37,0,0,1,2,1.27L70.84,7l-.12.07L84.06,32.67A2.37,2.37,0,0,1,84.33,33.76Z"/></g></g></svg>