<svg xmlns="http://www.w3.org/2000/svg" viewBox="0 0 84.33 119.19"><defs><style>.cls-1{fill:#1c4978;}</style></defs><title>logo1-blue</title><g id="Слой_2" data-name="Слой 2"><g id="Слой_1-2" data-name="Слой 1"><g id="Слой_2-2" data-name="Слой 2"><g id="Слой_1-2-2" data-name="Слой 1-2"><path class="cls-1" d="M84.33,33.76V60.18a2.37,2.37,0,0,1-1.27,2.1L51.13,78.93a2.37,2.37,0,0,1-3.2-1h0l-8.88-17a2.37,2.37,0,0,1,1-3.2h0L61.59,46.48a2.37,2.37,0,0,0,1-3.2h0l-12-23a2.37,2.37,0,0,0-3.2-1h0L25.1,30.85A2.37,2.37,0,0,0,23.83,33v83.82a2.37,2.37,0,0,1-2.37,2.37H2.37A2.37,2.37,0,0,1,0,116.82s0,0,0-.05V18.85a2.37,2.37,0,0,1,1.27-2.1L32,.27A2.37,2.37,0,0,1,33.18,0l33.5,1.56a2.37,2.37,0,0,1,2,1.27L70.84,7l-.12.07,13.34,25.6A2.37,2.37,0,0,1,84.33,33.76Z"/></g></g></g></g></svg>