<svg xmlns="http://www.w3.org/2000/svg" viewBox="0 0 42 36"><defs><style>.cls-1{fill:#d5d5d5;}</style></defs><title>quote-1</title><g id="Слой_2" data-name="Слой 2"><g id="Слой_1-2" data-name="Слой 1"><path class="cls-1" d="M39.6,20.55A7.74,7.74,0,0,0,33.75,18a10,10,0,0,1,1.2-4.8,19.54,19.54,0,0,1,2.85-4A26.22,26.22,0,0,1,42,5.25L37.5,0a27,27,0,0,0-6.75,6.3,34.66,34.66,0,0,0-4.65,7.95A27.87,27.87,0,0,0,24,25.5q0,5.1,2.62,7.8A9.48,9.48,0,0,0,33.75,36a7.73,7.73,0,0,0,5.85-2.55A9,9,0,0,0,42,27,9,9,0,0,0,39.6,20.55Zm-24,0A7.74,7.74,0,0,0,9.75,18a10,10,0,0,1,1.2-4.8,19.55,19.55,0,0,1,2.85-4A26.22,26.22,0,0,1,18,5.25L13.5,0A27,27,0,0,0,6.75,6.3,34.66,34.66,0,0,0,2.1,14.25,27.87,27.87,0,0,0,0,25.5q0,5.1,2.62,7.8A9.48,9.48,0,0,0,9.75,36a7.73,7.73,0,0,0,5.85-2.55A9,9,0,0,0,18,27,9,9,0,0,0,15.6,20.55Z"/></g></g></svg>