<svg xmlns="http://www.w3.org/2000/svg" viewBox="0 0 26.81 88.31"><defs><style>.cls-1{fill:#d9d8d8;}.cls-2{fill:#eb5427;}</style></defs><title>Ресурс 3</title><g id="Слой_2" data-name="Слой 2"><g id="Слой_1-2" data-name="Слой 1"><path class="cls-1" d="M5.25,58.31l2.19-9.37L.19,42.63l9.56-.81L13.5,33l3.75,8.81,9.56.81-7.25,6.31,2.19,9.37-8.25-5Z"/><path class="cls-2" d="M13.5,53.31l-8.25,5,2.19-9.37L.19,42.63l9.56-.81L13.5,33Z"/><path class="cls-2" d="M5.06,25.31l2.19-9.37L0,9.62l9.56-.81L13.31,0l3.75,8.81,9.56.81-7.25,6.31,2.19,9.37-8.25-5Z"/><path class="cls-1" d="M13.13,30"/><path class="cls-1" d="M5.06,88.31l2.19-9.37L0,72.62l9.56-.81L13.31,63l3.75,8.81,9.56.81-7.25,6.31,2.19,9.37-8.25-5Z"/><path class="cls-2" d="M13.29,30"/></g></g></svg>