<svg xmlns="http://www.w3.org/2000/svg" width="36" height="42" viewBox="0 0 36 42">
  <metadata><?xpacket begin="﻿" id="W5M0MpCehiHzreSzNTczkc9d"?>
<x:xmpmeta xmlns:x="adobe:ns:meta/" x:xmptk="Adobe XMP Core 5.6-c138 79.159824, 2016/09/14-01:09:01        ">
   <rdf:RDF xmlns:rdf="http://www.w3.org/1999/02/22-rdf-syntax-ns#">
      <rdf:Description rdf:about=""/>
   </rdf:RDF>
</x:xmpmeta>
                                                                                                    
                                                                                                    
                                                                                                    
                                                                                                    
                                                                                                    
                                                                                                    
                                                                                                    
                                                                                                    
                                                                                                    
                                                                                                    
                                                                                                    
                                                                                                    
                                                                                                    
                                                                                                    
                                                                                                    
                                                                                                    
                                                                                                    
                                                                                                    
                                                                                                    
                                                                                                    
                           
<?xpacket end="w"?></metadata>
<defs>
    <style>
      .cls-1 {
        fill: #bbb;
        fill-rule: evenodd;
        opacity: 0.6;
      }
    </style>
  </defs>
  <path id="иконка" class="cls-1" d="M30,26.187q-0.376-3-4.5-4.594A21.038,21.038,0,0,0,18,20a21.031,21.031,0,0,0-7.5,1.594q-4.127,1.6-4.5,4.594v1.781H30V26.187Zm-15.844-18a5.145,5.145,0,0,0-1.5,3.8,5.3,5.3,0,0,0,1.5,3.844A5.118,5.118,0,0,0,18,17.375a5.122,5.122,0,0,0,3.844-1.547,5.306,5.306,0,0,0,1.5-3.844,5.151,5.151,0,0,0-1.5-3.8A5.432,5.432,0,0,0,14.156,8.187ZM34.828,1.156A3.74,3.74,0,0,1,36,3.969V32a3.74,3.74,0,0,1-1.172,2.813,4.338,4.338,0,0,1-2.859,1.219H24l-6,6-6-6H4.031a4.335,4.335,0,0,1-2.859-1.219A3.734,3.734,0,0,1,0,32V3.969A3.816,3.816,0,0,1,1.125,1.156,3.932,3.932,0,0,1,4.031.031H31.969A3.976,3.976,0,0,1,34.828,1.156Z" transform="translate(0 -0.031)"/>
</svg>
