<svg xmlns="http://www.w3.org/2000/svg" width="36" height="48" viewBox="0 0 36 48">
  <metadata><?xpacket begin="﻿" id="W5M0MpCehiHzreSzNTczkc9d"?>
<x:xmpmeta xmlns:x="adobe:ns:meta/" x:xmptk="Adobe XMP Core 5.6-c138 79.159824, 2016/09/14-01:09:01        ">
   <rdf:RDF xmlns:rdf="http://www.w3.org/1999/02/22-rdf-syntax-ns#">
      <rdf:Description rdf:about=""/>
   </rdf:RDF>
</x:xmpmeta>
                                                                                                    
                                                                                                    
                                                                                                    
                                                                                                    
                                                                                                    
                                                                                                    
                                                                                                    
                                                                                                    
                                                                                                    
                                                                                                    
                                                                                                    
                                                                                                    
                                                                                                    
                                                                                                    
                                                                                                    
                                                                                                    
                                                                                                    
                                                                                                    
                                                                                                    
                                                                                                    
                           
<?xpacket end="w"?></metadata>
<defs>
    <style>
      .cls-1 {
        fill: #bbb;
        fill-rule: evenodd;
        opacity: 0.6;
      }
    </style>
  </defs>
  <path id="иконка" class="cls-1" d="M31.711,32.648A17.323,17.323,0,0,0,36,21a2.924,2.924,0,0,0-.867-2.109A2.836,2.836,0,0,0,33.023,18,3.041,3.041,0,0,0,30,21a11.561,11.561,0,0,1-3.516,8.484A11.562,11.562,0,0,1,18,33a11.561,11.561,0,0,1-8.484-3.516A11.561,11.561,0,0,1,6,21a2.924,2.924,0,0,0-.867-2.109A2.863,2.863,0,0,0,3,18a2.862,2.862,0,0,0-2.133.89A2.92,2.92,0,0,0,0,21,17.323,17.323,0,0,0,4.289,32.648,17.559,17.559,0,0,0,15,38.719V42H9a2.961,2.961,0,0,0-3,2.977,2.946,2.946,0,0,0,.867,2.133A2.859,2.859,0,0,0,9,48H27a2.86,2.86,0,0,0,2.133-.891A2.949,2.949,0,0,0,30,44.977a2.838,2.838,0,0,0-.891-2.11A2.924,2.924,0,0,0,27,42H21V38.719A17.561,17.561,0,0,0,31.711,32.648ZM27,21V9a8.681,8.681,0,0,0-2.625-6.375A8.681,8.681,0,0,0,18,0a8.679,8.679,0,0,0-6.375,2.625A8.678,8.678,0,0,0,9,9V21a8.963,8.963,0,0,0,9,9,8.963,8.963,0,0,0,9-9h0Z"/>
</svg>
