<svg xmlns="http://www.w3.org/2000/svg" width="36" height="48" viewBox="0 0 36 48">
  <metadata><?xpacket begin="﻿" id="W5M0MpCehiHzreSzNTczkc9d"?>
<x:xmpmeta xmlns:x="adobe:ns:meta/" x:xmptk="Adobe XMP Core 5.6-c138 79.159824, 2016/09/14-01:09:01        ">
   <rdf:RDF xmlns:rdf="http://www.w3.org/1999/02/22-rdf-syntax-ns#">
      <rdf:Description rdf:about=""/>
   </rdf:RDF>
</x:xmpmeta>
                                                                                                    
                                                                                                    
                                                                                                    
                                                                                                    
                                                                                                    
                                                                                                    
                                                                                                    
                                                                                                    
                                                                                                    
                                                                                                    
                                                                                                    
                                                                                                    
                                                                                                    
                                                                                                    
                                                                                                    
                                                                                                    
                                                                                                    
                                                                                                    
                                                                                                    
                                                                                                    
                           
<?xpacket end="w"?></metadata>
<defs>
    <style>
      .cls-1 {
        fill: #bbb;
        fill-rule: evenodd;
        opacity: 0.6;
      }
    </style>
  </defs>
  <path id="иконка" class="cls-1" d="M33.586,27.023A17.629,17.629,0,0,0,36,18a17.631,17.631,0,0,0-2.414-9.023,17.872,17.872,0,0,0-6.563-6.562A17.631,17.631,0,0,0,18,0,17.629,17.629,0,0,0,8.977,2.414,17.867,17.867,0,0,0,2.414,8.976,17.624,17.624,0,0,0,0,18a17.622,17.622,0,0,0,2.414,9.023,17.862,17.862,0,0,0,6.563,6.562A17.622,17.622,0,0,0,18,36a17.624,17.624,0,0,0,9.023-2.414A17.868,17.868,0,0,0,33.586,27.023ZM30,18a11.561,11.561,0,0,1-3.516,8.484A11.563,11.563,0,0,1,18,30a11.561,11.561,0,0,1-8.484-3.515A11.561,11.561,0,0,1,6,18,11.562,11.562,0,0,1,9.516,9.516,11.56,11.56,0,0,1,18,6a11.562,11.562,0,0,1,8.484,3.516A11.562,11.562,0,0,1,30,18Zm-6-4.5a3.878,3.878,0,0,0-1.758-3.187A6.893,6.893,0,0,0,18,9a6.891,6.891,0,0,0-4.242,1.313,3.769,3.769,0,0,0,0,6.375A6.887,6.887,0,0,0,18,18a6.889,6.889,0,0,0,4.242-1.312A3.876,3.876,0,0,0,24,13.5ZM7.453,42.773A10.451,10.451,0,0,0,6,48H30a10.332,10.332,0,0,0-1.453-5.2,14.342,14.342,0,0,0-3.8-4.312A42.223,42.223,0,0,1,18,39a42.208,42.208,0,0,1-6.75-.516A13.7,13.7,0,0,0,7.453,42.773Z"/>
</svg>
